<svg width="24" height="23" viewBox="0 0 24 23" fill="none" xmlns="http://www.w3.org/2000/svg">
<path d="M21.7778 5.30786H19V7H21.3447C21.897 7 22.3447 7.44772 22.3447 8V13.75V20.8877L18.8378 18.0457C18.6007 17.8548 18.305 17.7506 18 17.7505H8C7.44771 17.7505 7 17.3028 7 16.7505V14.5H6.5L5.33337 15.1992V17.2505C5.33337 17.837 5.5675 18.3996 5.98425 18.8143C6.401 19.2291 6.96623 19.4621 7.5556 19.4621H17.7967L21.8289 22.7054C22.0247 22.8627 22.2612 22.9617 22.5111 22.991C22.761 23.0202 23.0141 22.9784 23.2412 22.8705C23.4683 22.7626 23.6601 22.593 23.7943 22.3812C23.9286 22.1694 23.9999 21.9241 24 21.6737V7.51946C24 6.9329 23.7659 6.37038 23.3492 5.95562C22.9324 5.54087 22.3672 5.30786 21.7778 5.30786Z" fill="#D73DFF" fill-opacity="0.45"/>
<path d="M5.33333 14.8542L6.5 14.1542H8H16.4444C17.0338 14.1542 17.599 13.9212 18.0158 13.5064C18.4325 13.0917 18.6667 12.5292 18.6667 11.9426V7.96174V5.30783V2.2116C18.6667 1.62504 18.4325 1.06252 18.0158 0.647761C17.599 0.233007 17.0338 0 16.4444 0H2.22222C1.63285 0 1.06762 0.233007 0.650874 0.647761C0.234126 1.06252 0 1.62504 0 2.2116V16.3658C0.000111763 16.6162 0.0714284 16.8615 0.205707 17.0733C0.339986 17.2851 0.531745 17.4548 0.758822 17.5627C0.985898 17.6706 1.23902 17.7123 1.48894 17.6831C1.73885 17.6539 1.97535 17.5549 2.17111 17.3975L5.33333 14.8542ZM1.62349 15.5V8.5V2.5C1.62349 1.94772 2.07121 1.5 2.62349 1.5H16C16.5523 1.5 17 1.94772 17 2.5V7.0771V11.5C17 12.0523 16.5523 12.5 16 12.5H6C5.69351 12.4995 5.39608 12.5659 5.15778 12.6881L1.62349 15.5Z" fill="#D73DFF" fill-opacity="0.45"/>
</svg>
